<svg width="16" height="51" viewBox="0 0 16 51" fill="none" xmlns="http://www.w3.org/2000/svg">
<path d="M7.61066 26.5513L13.4995 20.6711L15.23 22.4016L7.61066 30.0209L0 22.4016L1.73049 20.6711L7.61066 26.5513Z" fill="#17429F"/>
<path d="M7.61066 16.2803L13.4995 10.4001L15.23 12.1306L7.61066 19.7499L0 12.1306L1.73049 10.4001L7.61066 16.2803Z" fill="#17429F"/>
<path d="M7.61066 5.88875L13.4995 -5.99716e-05L15.23 1.73905L7.61066 9.34973L0 1.73905L1.73049 -5.99716e-05L7.61066 5.88875Z" fill="#17429F"/>
<path d="M7.61066 47.2137L13.4995 41.3336L15.23 43.0641L7.61066 50.6833L0 43.0641L1.73049 41.3336L7.61066 47.2137Z" fill="#17429F"/>
<path d="M7.61066 36.9428L13.4995 31.0626L15.23 32.7931L7.61066 40.4124L0 32.7931L1.73049 31.0626L7.61066 36.9428Z" fill="#17429F"/>
</svg>
