<svg width="90" height="90" viewBox="0 0 90 90" fill="none" xmlns="http://www.w3.org/2000/svg">
<path d="M6.17017 23.1701L22.7302 6.61011C19.7902 8.29011 17.0601 10.3001 14.5901 12.5801L12.1402 15.0301C9.86017 17.5001 7.85017 20.2301 6.17017 23.1701Z" fill="#0B315E"/>
<path d="M1.22998 36.33L35.89 1.67004C34.93 1.86004 33.99 2.09004 33.05 2.34004L1.89996 33.49C1.64996 34.43 1.41998 35.37 1.22998 36.33Z" fill="#0B315E"/>
<path d="M0.350098 45.14C0.350098 45.23 0.350098 45.33 0.350098 45.42L44.9801 0.800049C44.8901 0.800049 44.7901 0.800049 44.7001 0.800049C44.0501 0.800049 43.4101 0.820049 42.7801 0.840049L0.400085 43.2201C0.370085 43.8601 0.350098 44.5 0.350098 45.14Z" fill="#0B315E"/>
<path d="M1.04001 52.9601L52.51 1.49007C51.89 1.38007 51.26 1.28007 50.64 1.20007L0.75 51.0901C0.83 51.7101 0.930009 52.3401 1.04001 52.9601Z" fill="#0B315E"/>
<path d="M2.72018 59.49L59.0402 3.17002C58.5002 2.98002 57.9502 2.81002 57.4002 2.65002L2.2002 57.85C2.3702 58.4 2.54018 58.95 2.72018 59.49Z" fill="#0B315E"/>
<path d="M5.16998 65.26L64.82 5.61002C64.34 5.37002 63.85 5.13002 63.36 4.90002L4.45996 63.8C4.68996 64.29 4.91998 64.78 5.16998 65.26Z" fill="#0B315E"/>
<path d="M8.25012 70.4001L69.9601 8.69007C69.5301 8.39007 69.1001 8.10007 68.6601 7.82007L7.38013 69.1001C7.66013 69.5401 7.95012 69.9701 8.25012 70.4001Z" fill="#0B315E"/>
<path d="M11.8901 74.9801L74.5301 12.3401C74.1501 12.0001 73.7701 11.6601 73.3801 11.3301L10.8801 73.8301C11.2101 74.2101 11.5501 74.6001 11.8901 74.9801Z" fill="#0B315E"/>
<path d="M16.0801 79.0101L78.5702 16.5201C78.2402 16.1301 77.9002 15.7401 77.5602 15.3601L14.9202 78.0001C15.3002 78.3401 15.6801 78.6801 16.0801 79.0101Z" fill="#0B315E"/>
<path d="M20.8 82.5001L82.06 21.2401C81.78 20.8001 81.49 20.3701 81.19 19.9401L19.5 81.6401C19.93 81.9301 20.36 82.2201 20.8 82.5001Z" fill="#0B315E"/>
<path d="M26.1101 85.4101L84.9601 26.5601C84.7301 26.0701 84.5001 25.5801 84.2501 25.1001L24.6401 84.7101C25.1301 84.9501 25.6201 85.1801 26.1101 85.4101Z" fill="#0B315E"/>
<path d="M32.0802 87.66L87.2202 32.52C87.0602 31.97 86.8802 31.42 86.7002 30.88L30.4402 87.14C30.9802 87.33 31.5302 87.5 32.0802 87.66Z" fill="#0B315E"/>
<path d="M38.86 89.1L88.66 39.3C88.58 38.67 88.48 38.04 88.37 37.42L36.98 88.81C37.6 88.92 38.23 89.02 38.86 89.1Z" fill="#0B315E"/>
<path d="M44.7 89.4901C45.39 89.4901 46.07 89.4701 46.74 89.4401L88.99 47.1901C89.02 46.5101 89.04 45.8301 89.04 45.1501C89.04 45.0901 89.04 45.0401 89.04 44.9801L44.53 89.4901C44.58 89.4801 44.64 89.4901 44.7 89.4901Z" fill="#0B315E"/>
<path d="M56.5002 87.8901L87.4502 56.9401C87.7102 56.0001 87.9402 55.0501 88.1402 54.0901L53.6501 88.5801C54.6101 88.3801 55.5602 88.1501 56.5002 87.8901Z" fill="#0B315E"/>
<path d="M83.0602 67.38L66.9302 83.51C73.6102 79.63 79.1802 74.06 83.0602 67.38Z" fill="#0B315E"/>
</svg>
