<svg width="81" height="80" viewBox="0 0 81 80" fill="none" xmlns="http://www.w3.org/2000/svg">
<path d="M9.45996 1.28003H0.209961L9.45996 10.53V1.28003Z" fill="#244579"/>
<path d="M23.3301 15.14H14.0801L23.3301 24.39V15.14Z" fill="#244579"/>
<path d="M37.1899 29.01H27.9399L37.1899 38.26V29.01Z" fill="#244579"/>
<path d="M51.0601 42.87H41.8101L51.0601 52.12V42.87Z" fill="#244579"/>
<path d="M64.9299 56.74H55.6799L64.9299 65.99V56.74Z" fill="#244579"/>
<path d="M78.79 70.6001H69.54L78.79 79.8601V70.6001Z" fill="#244579"/>
<path d="M37.49 0.97998H28.24L37.49 10.23V0.97998Z" fill="#244579"/>
<path d="M51.3501 14.85H42.1001L51.3501 24.1V14.85Z" fill="#244579"/>
<path d="M65.22 28.71H55.97L65.22 37.96V28.71Z" fill="#244579"/>
<path d="M79.0901 42.58H69.8401L79.0901 51.83V42.58Z" fill="#244579"/>
<path d="M65.51 0.690063H56.26L65.51 9.94006V0.690063Z" fill="#244579"/>
<path d="M79.3799 14.55H70.1299L79.3799 23.8V14.55Z" fill="#244579"/>
<path d="M23.8799 0.719971H14.6299L23.8799 9.96997V0.719971Z" fill="#244579"/>
<path d="M37.7498 14.59H28.4897L37.7498 23.84V14.59Z" fill="#244579"/>
<path d="M51.6099 28.46H42.3599L51.6099 37.71V28.46Z" fill="#244579"/>
<path d="M65.48 42.3199H56.23L65.48 51.5699V42.3199Z" fill="#244579"/>
<path d="M79.3398 56.1899H70.0898L79.3398 65.4399V56.1899Z" fill="#244579"/>
<path d="M51.5 0.830078H42.25L51.5 10.0801V0.830078Z" fill="#244579"/>
<path d="M65.3701 14.7001H56.1201L65.3701 23.9501V14.7001Z" fill="#244579"/>
<path d="M79.23 28.5701H69.98L79.23 37.8201V28.5701Z" fill="#244579"/>
<path d="M80.02 0.0500488H70.76L80.02 9.30005V0.0500488Z" fill="#244579"/>
</svg>
