<svg width="77" height="77" viewBox="0 0 77 77" fill="none" xmlns="http://www.w3.org/2000/svg">
<path d="M73.31 5.88C71.69 5.88 70.37 4.56 70.37 2.94C70.37 1.32 71.69 0 73.31 0C74.93 0 76.25 1.32 76.25 2.94C76.25 4.57 74.93 5.88 73.31 5.88ZM76.25 20.53C76.25 18.91 74.93 17.59 73.31 17.59C71.69 17.59 70.37 18.91 70.37 20.53C70.37 22.15 71.69 23.47 73.31 23.47C74.93 23.47 76.25 22.16 76.25 20.53ZM76.25 38.12C76.25 36.5 74.93 35.18 73.31 35.18C71.69 35.18 70.37 36.5 70.37 38.12C70.37 39.74 71.69 41.06 73.31 41.06C74.93 41.07 76.25 39.75 76.25 38.12ZM76.25 55.72C76.25 54.1 74.93 52.78 73.31 52.78C71.69 52.78 70.37 54.1 70.37 55.72C70.37 57.34 71.69 58.66 73.31 58.66C74.93 58.66 76.25 57.34 76.25 55.72ZM76.25 73.31C76.25 71.69 74.93 70.37 73.31 70.37C71.69 70.37 70.37 71.69 70.37 73.31C70.37 74.93 71.69 76.25 73.31 76.25C74.93 76.25 76.25 74.93 76.25 73.31ZM58.66 2.94C58.66 1.32 57.34 0 55.72 0C54.1 0 52.78 1.32 52.78 2.94C52.78 4.56 54.1 5.88 55.72 5.88C57.34 5.88 58.66 4.57 58.66 2.94ZM58.66 20.53C58.66 18.91 57.34 17.59 55.72 17.59C54.1 17.59 52.78 18.91 52.78 20.53C52.78 22.15 54.1 23.47 55.72 23.47C57.34 23.47 58.66 22.16 58.66 20.53ZM58.66 38.12C58.66 36.5 57.34 35.18 55.72 35.18C54.1 35.18 52.78 36.5 52.78 38.12C52.78 39.74 54.1 41.06 55.72 41.06C57.34 41.07 58.66 39.75 58.66 38.12ZM58.66 55.72C58.66 54.1 57.34 52.78 55.72 52.78C54.1 52.78 52.78 54.1 52.78 55.72C52.78 57.34 54.1 58.66 55.72 58.66C57.34 58.66 58.66 57.34 58.66 55.72ZM58.66 73.31C58.66 71.69 57.34 70.37 55.72 70.37C54.1 70.37 52.78 71.69 52.78 73.31C52.78 74.93 54.1 76.25 55.72 76.25C57.34 76.25 58.66 74.93 58.66 73.31ZM41.06 2.94C41.06 1.32 39.74 0 38.12 0C36.5 0 35.18 1.32 35.18 2.94C35.18 4.56 36.5 5.88 38.12 5.88C39.75 5.88 41.06 4.57 41.06 2.94ZM41.06 20.53C41.06 18.91 39.74 17.59 38.12 17.59C36.5 17.59 35.18 18.91 35.18 20.53C35.18 22.15 36.5 23.47 38.12 23.47C39.75 23.47 41.06 22.16 41.06 20.53ZM41.06 38.12C41.06 36.5 39.74 35.18 38.12 35.18C36.5 35.18 35.18 36.5 35.18 38.12C35.18 39.74 36.5 41.06 38.12 41.06C39.75 41.07 41.06 39.75 41.06 38.12ZM41.06 55.72C41.06 54.1 39.74 52.78 38.12 52.78C36.5 52.78 35.18 54.1 35.18 55.72C35.18 57.34 36.5 58.66 38.12 58.66C39.75 58.66 41.06 57.34 41.06 55.72ZM41.06 73.31C41.06 71.69 39.74 70.37 38.12 70.37C36.5 70.37 35.18 71.69 35.18 73.31C35.18 74.93 36.5 76.25 38.12 76.25C39.75 76.25 41.06 74.93 41.06 73.31ZM23.47 2.94C23.47 1.32 22.15 0 20.53 0C18.91 0 17.59 1.32 17.59 2.94C17.59 4.56 18.91 5.88 20.53 5.88C22.16 5.88 23.47 4.57 23.47 2.94ZM23.47 20.53C23.47 18.91 22.15 17.59 20.53 17.59C18.91 17.59 17.59 18.91 17.59 20.53C17.59 22.15 18.91 23.47 20.53 23.47C22.16 23.47 23.47 22.16 23.47 20.53ZM23.47 38.12C23.47 36.5 22.15 35.18 20.53 35.18C18.91 35.18 17.59 36.5 17.59 38.12C17.59 39.74 18.91 41.06 20.53 41.06C22.16 41.07 23.47 39.75 23.47 38.12ZM23.47 55.72C23.47 54.1 22.15 52.78 20.53 52.78C18.91 52.78 17.59 54.1 17.59 55.72C17.59 57.34 18.91 58.66 20.53 58.66C22.16 58.66 23.47 57.34 23.47 55.72ZM23.47 73.31C23.47 71.69 22.15 70.37 20.53 70.37C18.91 70.37 17.59 71.69 17.59 73.31C17.59 74.93 18.91 76.25 20.53 76.25C22.16 76.25 23.47 74.93 23.47 73.31ZM5.88 2.94C5.88 1.32 4.56 0 2.94 0C1.32 0 0 1.32 0 2.94C0 4.56 1.32 5.88 2.94 5.88C4.56 5.88 5.88 4.57 5.88 2.94ZM5.88 20.53C5.88 18.91 4.56 17.59 2.94 17.59C1.32 17.59 0 18.91 0 20.53C0 22.15 1.32 23.47 2.94 23.47C4.56 23.47 5.88 22.16 5.88 20.53ZM5.88 38.12C5.88 36.5 4.56 35.18 2.94 35.18C1.32 35.18 0 36.5 0 38.12C0 39.74 1.32 41.06 2.94 41.06C4.56 41.06 5.88 39.75 5.88 38.12ZM5.88 55.72C5.88 54.1 4.56 52.78 2.94 52.78C1.32 52.78 0 54.1 0 55.72C0 57.34 1.32 58.66 2.94 58.66C4.56 58.66 5.88 57.34 5.88 55.72ZM5.88 73.31C5.88 71.69 4.56 70.37 2.94 70.37C1.32 70.37 0 71.69 0 73.31C0 74.93 1.32 76.25 2.94 76.25C4.56 76.25 5.88 74.93 5.88 73.31Z" fill="#244579"/>
</svg>
