<svg width="77" height="144" viewBox="0 0 77 144" fill="none" xmlns="http://www.w3.org/2000/svg">
<path d="M72.7161 9.35099C70.4664 9.35099 68.6322 7.48601 68.6322 5.1755C68.6322 2.86498 70.4563 1 72.7161 1C74.9658 1 76.8 2.86498 76.8 5.1755C76.8 7.48601 74.9759 9.35099 72.7161 9.35099Z" fill="#FF9D00"/>
<path d="M72.7162 31.7308C70.4665 31.7308 68.6323 29.8658 68.6323 27.5553C68.6323 25.2551 70.4564 23.3798 72.7162 23.3798C74.9659 23.3798 76.8001 25.2447 76.8001 27.5553C76.8001 29.8554 74.976 31.7308 72.7162 31.7308Z" fill="#FF9D00"/>
<path d="M72.7162 54.1106C70.4665 54.1106 68.6323 52.2456 68.6323 49.9351C68.6323 47.6246 70.4564 45.7596 72.7162 45.7596C74.9659 45.7596 76.8001 47.6246 76.8001 49.9351C76.8001 52.2456 74.976 54.1106 72.7162 54.1106Z" fill="#FF9D00"/>
<path d="M72.7162 76.4801C70.4665 76.4801 68.6323 74.6152 68.6323 72.3046C68.6323 69.9941 70.4564 68.1292 72.7162 68.1292C74.9659 68.1292 76.8001 69.9941 76.8001 72.3046C76.8001 74.6152 74.976 76.4801 72.7162 76.4801Z" fill="#1D262D"/>
<path d="M72.7162 98.8601C70.4665 98.8601 68.6323 96.9951 68.6323 94.6846C68.6323 92.3844 70.4564 90.509 72.7162 90.509C74.9659 90.509 76.8001 92.374 76.8001 94.6846C76.8001 96.9951 74.976 98.8601 72.7162 98.8601Z" fill="#FF9D00"/>
<path d="M72.7162 121.24C70.4665 121.24 68.6323 119.375 68.6323 117.064C68.6323 114.754 70.4564 112.889 72.7162 112.889C74.9659 112.889 76.8001 114.754 76.8001 117.064C76.8001 119.375 74.976 121.24 72.7162 121.24Z" fill="#FF9D00"/>
<path d="M72.7162 143.62C70.4665 143.62 68.6323 141.755 68.6323 139.444C68.6323 137.134 70.4564 135.269 72.7162 135.269C74.9659 135.269 76.8001 137.134 76.8001 139.444C76.8001 141.755 74.976 143.62 72.7162 143.62Z" fill="#1D262D"/>
<path d="M55.813 9.35099C58.0685 9.35099 59.8969 7.48156 59.8969 5.1755C59.8969 2.86943 58.0685 1 55.813 1C53.5575 1 51.7291 2.86943 51.7291 5.1755C51.7291 7.48156 53.5575 9.35099 55.813 9.35099Z" fill="#FF9D00"/>
<path d="M55.8129 31.7308C53.5632 31.7308 51.729 29.8658 51.729 27.5553C51.729 25.2551 53.5531 23.3798 55.8129 23.3798C58.0626 23.3798 59.8968 25.2447 59.8968 27.5553C59.8968 29.8554 58.0626 31.7308 55.8129 31.7308Z" stroke="#FF9D00" stroke-miterlimit="10"/>
<path d="M55.8129 54.1106C58.0683 54.1106 59.8968 52.2412 59.8968 49.9351C59.8968 47.6291 58.0683 45.7596 55.8129 45.7596C53.5574 45.7596 51.729 47.6291 51.729 49.9351C51.729 52.2412 53.5574 54.1106 55.8129 54.1106Z" fill="#FF9D00"/>
<path d="M55.8129 76.4905C58.0683 76.4905 59.8968 74.6211 59.8968 72.315C59.8968 70.009 58.0683 68.1395 55.8129 68.1395C53.5574 68.1395 51.729 70.009 51.729 72.315C51.729 74.6211 53.5574 76.4905 55.8129 76.4905Z" fill="#FF9D00"/>
<path d="M55.8129 98.8601C53.5632 98.8601 51.729 96.9951 51.729 94.6846C51.729 92.3844 53.5531 90.509 55.8129 90.509C58.0626 90.509 59.8968 92.374 59.8968 94.6846C59.8968 96.9951 58.0626 98.8601 55.8129 98.8601Z" fill="#FF9D00"/>
<path d="M55.8129 121.25C58.0683 121.25 59.8968 119.381 59.8968 117.075C59.8968 114.769 58.0683 112.899 55.8129 112.899C53.5574 112.899 51.729 114.769 51.729 117.075C51.729 119.381 53.5574 121.25 55.8129 121.25Z" stroke="#FF9D00" stroke-miterlimit="10"/>
<path d="M55.8129 143.63C58.0683 143.63 59.8968 141.76 59.8968 139.454C59.8968 137.148 58.0683 135.279 55.8129 135.279C53.5574 135.279 51.729 137.148 51.729 139.454C51.729 141.76 53.5574 143.63 55.8129 143.63Z" fill="#FF9D00"/>
<path d="M38.8999 9.35099C41.1554 9.35099 42.9838 7.48156 42.9838 5.1755C42.9838 2.86943 41.1554 1 38.8999 1C36.6445 1 34.816 2.86943 34.816 5.1755C34.816 7.48156 36.6445 9.35099 38.8999 9.35099Z" fill="#FF9D00"/>
<path d="M38.8998 31.7308C36.6501 31.7308 34.8159 29.8658 34.8159 27.5553C34.8159 25.2551 36.64 23.3798 38.8998 23.3798C41.1596 23.3798 42.9837 25.2447 42.9837 27.5553C42.9837 29.8554 41.1596 31.7308 38.8998 31.7308Z" fill="#FF9D00"/>
<path d="M38.8998 54.1106C41.1553 54.1106 42.9837 52.2412 42.9837 49.9351C42.9837 47.6291 41.1553 45.7596 38.8998 45.7596C36.6443 45.7596 34.8159 47.6291 34.8159 49.9351C34.8159 52.2412 36.6443 54.1106 38.8998 54.1106Z" fill="#FF9D00"/>
<path d="M38.8998 76.4905C41.1553 76.4905 42.9837 74.6211 42.9837 72.315C42.9837 70.009 41.1553 68.1395 38.8998 68.1395C36.6443 68.1395 34.8159 70.009 34.8159 72.315C34.8159 74.6211 36.6443 76.4905 38.8998 76.4905Z" fill="#FF9D00"/>
<path d="M38.8998 98.8601C36.6501 98.8601 34.8159 96.9951 34.8159 94.6846C34.8159 92.3844 36.64 90.509 38.8998 90.509C41.1596 90.509 42.9837 92.374 42.9837 94.6846C42.9837 96.9951 41.1596 98.8601 38.8998 98.8601Z" fill="#1D262D"/>
<path d="M38.8998 121.25C41.1553 121.25 42.9837 119.381 42.9837 117.075C42.9837 114.769 41.1553 112.899 38.8998 112.899C36.6443 112.899 34.8159 114.769 34.8159 117.075C34.8159 119.381 36.6443 121.25 38.8998 121.25Z" fill="#FF9D00"/>
<path d="M38.8998 143.63C41.1553 143.63 42.9837 141.76 42.9837 139.454C42.9837 137.148 41.1553 135.279 38.8998 135.279C36.6443 135.279 34.8159 137.148 34.8159 139.454C34.8159 141.76 36.6443 143.63 38.8998 143.63Z" fill="#FF9D00"/>
<path d="M21.987 9.35099C24.2424 9.35099 26.0708 7.48156 26.0708 5.1755C26.0708 2.86943 24.2424 1 21.987 1C19.7315 1 17.9031 2.86943 17.9031 5.1755C17.9031 7.48156 19.7315 9.35099 21.987 9.35099Z" fill="#FF9D00"/>
<path d="M21.987 31.7308C19.7373 31.7308 17.9031 29.8658 17.9031 27.5553C17.9031 25.2551 19.7271 23.3798 21.987 23.3798C24.2468 23.3798 26.0708 25.2447 26.0708 27.5553C26.0708 29.8554 24.2468 31.7308 21.987 31.7308Z" fill="#1D262D"/>
<path d="M21.987 54.1106C24.2424 54.1106 26.0708 52.2412 26.0708 49.9351C26.0708 47.6291 24.2424 45.7596 21.987 45.7596C19.7315 45.7596 17.9031 47.6291 17.9031 49.9351C17.9031 52.2412 19.7315 54.1106 21.987 54.1106Z" fill="#FF9D00"/>
<path d="M21.987 76.4905C24.2424 76.4905 26.0708 74.6211 26.0708 72.315C26.0708 70.009 24.2424 68.1395 21.987 68.1395C19.7315 68.1395 17.9031 70.009 17.9031 72.315C17.9031 74.6211 19.7315 76.4905 21.987 76.4905Z" stroke="#FF9D00" stroke-miterlimit="10"/>
<path d="M21.987 98.8601C19.7373 98.8601 17.9031 96.9951 17.9031 94.6846C17.9031 92.3844 19.7271 90.509 21.987 90.509C24.2468 90.509 26.0708 92.374 26.0708 94.6846C26.0708 96.9951 24.2468 98.8601 21.987 98.8601Z" fill="#FF9D00"/>
<path d="M21.987 121.25C24.2424 121.25 26.0708 119.381 26.0708 117.075C26.0708 114.769 24.2424 112.899 21.987 112.899C19.7315 112.899 17.9031 114.769 17.9031 117.075C17.9031 119.381 19.7315 121.25 21.987 121.25Z" fill="#FF9D00"/>
<path d="M21.987 143.63C24.2424 143.63 26.0708 141.76 26.0708 139.454C26.0708 137.148 24.2424 135.279 21.987 135.279C19.7315 135.279 17.9031 137.148 17.9031 139.454C17.9031 141.76 19.7315 143.63 21.987 143.63Z" fill="#FF9D00"/>
<path d="M5.08388 9.35099C7.33934 9.35099 9.16775 7.48156 9.16775 5.1755C9.16775 2.86943 7.33934 1 5.08388 1C2.82841 1 1 2.86943 1 5.1755C1 7.48156 2.82841 9.35099 5.08388 9.35099Z" stroke="#FF9D00" stroke-miterlimit="10"/>
<path d="M5.08388 31.7308C2.8342 31.7308 1 29.8658 1 27.5553C1 25.2551 2.82406 23.3798 5.08388 23.3798C7.33355 23.3798 9.16775 25.2447 9.16775 27.5553C9.16775 29.8554 7.33355 31.7308 5.08388 31.7308Z" fill="#FF9D00"/>
<path d="M5.08388 54.1106C7.33934 54.1106 9.16775 52.2412 9.16775 49.9351C9.16775 47.6291 7.33934 45.7596 5.08388 45.7596C2.82841 45.7596 1 47.6291 1 49.9351C1 52.2412 2.82841 54.1106 5.08388 54.1106Z" fill="#FF9D00"/>
<path d="M5.08388 76.4905C7.33934 76.4905 9.16775 74.6211 9.16775 72.315C9.16775 70.009 7.33934 68.1395 5.08388 68.1395C2.82841 68.1395 1 70.009 1 72.315C1 74.6211 2.82841 76.4905 5.08388 76.4905Z" fill="#FF9D00"/>
<path d="M5.08388 98.8601C2.8342 98.8601 1 96.9951 1 94.6846C1 92.3844 2.82406 90.509 5.08388 90.509C7.33355 90.509 9.16775 92.374 9.16775 94.6846C9.16775 96.9951 7.33355 98.8601 5.08388 98.8601Z" fill="#FF9D00"/>
<path d="M5.08388 121.25C7.33934 121.25 9.16775 119.381 9.16775 117.075C9.16775 114.769 7.33934 112.899 5.08388 112.899C2.82841 112.899 1 114.769 1 117.075C1 119.381 2.82841 121.25 5.08388 121.25Z" fill="#FF9D00"/>
<path d="M5.08388 143.63C7.33934 143.63 9.16775 141.76 9.16775 139.454C9.16775 137.148 7.33934 135.279 5.08388 135.279C2.82841 135.279 1 137.148 1 139.454C1 141.76 2.82841 143.63 5.08388 143.63Z" fill="#FF9D00"/>
</svg>
